<?xml version="1.0" encoding="UTF-8"?>
<svg xmlns="http://www.w3.org/2000/svg" xmlns:xlink="http://www.w3.org/1999/xlink" width="384pt" height="384pt" viewBox="0 0 384 384" version="1.1">
<g id="surface2257399">
<path style=" stroke:none;fill-rule:nonzero;fill:rgb(100%,80%,36.078431%);fill-opacity:1;" d="M 90.238281 22.398438 C 87.898438 22.398438 85.625 22.644531 83.417969 23.09375 C 67.957031 26.257812 56.320312 39.921875 56.320312 56.320312 L 56.320312 361.601562 L 192 310.71875 L 327.679688 361.601562 L 327.679688 56.320312 C 327.679688 53.988281 327.4375 51.699219 326.984375 49.496094 C 324.273438 36.246094 313.835938 25.804688 300.582031 23.09375 C 298.375 22.644531 296.101562 22.398438 293.761719 22.398438 Z M 90.238281 22.398438 "/>
<path style=" stroke:none;fill-rule:nonzero;fill:rgb(27.058824%,27.058824%,27.058824%);fill-opacity:1;" d="M 140.648438 145.734375 L 140.648438 203.429688 L 151.128906 203.429688 L 151.128906 218.246094 L 140.648438 218.246094 L 140.648438 238.265625 L 122.28125 238.265625 L 122.28125 218.246094 L 84.347656 218.246094 L 83.519531 206.671875 L 122.09375 145.734375 Z M 121.074219 172.878906 L 101.8125 203.429688 L 122.28125 203.429688 L 122.28125 170.773438 Z M 223.261719 182.984375 L 223.261719 200 C 223.261719 212.792969 220.617188 222.582031 215.332031 229.367188 C 210.03125 236.152344 202.277344 239.542969 192.070312 239.542969 C 181.972656 239.542969 174.257812 236.214844 168.925781 229.554688 C 163.59375 222.898438 160.863281 213.371094 160.738281 200.96875 L 160.738281 183.929688 C 160.738281 171.007812 163.414062 161.195312 168.761719 154.492188 C 174.125 147.800781 181.847656 144.457031 191.929688 144.457031 C 202.011719 144.457031 209.726562 147.769531 215.074219 154.394531 C 220.40625 161.039062 223.136719 170.566406 223.261719 182.984375 Z M 204.898438 203.3125 L 204.898438 181.328125 C 204.898438 173.660156 203.847656 168.074219 201.75 164.570312 C 199.652344 161.085938 196.378906 159.34375 191.929688 159.34375 C 187.605469 159.34375 184.417969 161 182.367188 164.3125 C 180.316406 167.640625 179.230469 172.847656 179.101562 179.929688 L 179.101562 202.414062 C 179.101562 209.953125 180.128906 215.5625 182.179688 219.238281 C 184.230469 222.898438 187.527344 224.730469 192.070312 224.730469 C 196.550781 224.730469 199.792969 222.96875 201.796875 219.453125 C 203.785156 215.933594 204.820312 210.554688 204.898438 203.3125 Z M 289.996094 145.734375 L 289.996094 203.429688 L 300.480469 203.429688 L 300.480469 218.246094 L 289.996094 218.246094 L 289.996094 238.265625 L 271.632812 238.265625 L 271.632812 218.246094 L 233.699219 218.246094 L 232.871094 206.671875 L 271.445312 145.734375 Z M 270.425781 172.878906 L 251.164062 203.429688 L 271.632812 203.429688 L 271.632812 170.773438 Z M 270.425781 172.878906 "/>
</g>
</svg>
